<svg width="177" height="49" viewBox="0 0 177 49" fill="none" xmlns="http://www.w3.org/2000/svg">
<path d="M0 33C0 33.5523 0.447715 34 1 34H112.279C112.425 34 112.568 33.9682 112.701 33.9067L176.422 4.26896C176.774 4.10491 177 3.75123 177 3.36224V1.56799C177 0.836926 176.241 0.352955 175.578 0.66127L112.701 29.9067C112.568 29.9682 112.425 30 112.279 30H1C0.447717 30 0 30.4477 0 31V33Z" fill="url(#paint0_linear_3446_35958)" fill-opacity="0.4"/>
<path d="M0 33C0 33.5523 0.447715 34 1 34H112.279C112.425 34 112.568 33.9682 112.701 33.9067L176.422 4.26896C176.774 4.10491 177 3.75123 177 3.36224V1.56799C177 0.836926 176.241 0.352955 175.578 0.66127L112.701 29.9067C112.568 29.9682 112.425 30 112.279 30H1C0.447717 30 0 30.4477 0 31V33Z" fill="url(#paint1_linear_3446_35958)" fill-opacity="0.69"/>
<g filter="url(#filter0_f_3446_35958)">
<ellipse cx="19.5" cy="3.5" rx="19.5" ry="3.5" transform="matrix(0.999265 -0.0383462 -0.0383462 -0.999265 84.1484 36.7454)" fill="#ff5055" fill-opacity="0.73"/>
</g>
<defs>
<filter id="filter0_f_3446_35958" x="71.1137" y="16.0231" width="64.7727" height="32.9543" filterUnits="userSpaceOnUse" color-interpolation-filters="sRGB">
<feFlood flood-opacity="0" result="BackgroundImageFix"/>
<feBlend mode="normal" in="SourceGraphic" in2="BackgroundImageFix" result="shape"/>
<feGaussianBlur stdDeviation="6.45" result="effect1_foregroundBlur_3446_35958"/>
</filter>
<linearGradient id="paint0_linear_3446_35958" x1="0" y1="32" x2="177.001" y2="32.125" gradientUnits="userSpaceOnUse">
<stop offset="0.591" stop-color="#ff5055"/>
<stop offset="1" stop-color="#862830" stop-opacity="0"/>
</linearGradient>
<linearGradient id="paint1_linear_3446_35958" x1="0" y1="17" x2="177" y2="17" gradientUnits="userSpaceOnUse">
<stop offset="0.517924" stop-color="#E7E7E7" stop-opacity="0"/>
<stop offset="0.617501" stop-color="white"/>
<stop offset="0.762221" stop-color="#E7E7E7" stop-opacity="0"/>
</linearGradient>
</defs>
</svg>